<svg width="146" height="29" viewBox="0 0 146 29" fill="none" xmlns="http://www.w3.org/2000/svg">
<path d="M21.432 10.28L16.68 23H14.472L10.8 13.352L7.08 23H4.872L0.144 10.28H2.328L6.024 20.408L9.864 10.28H11.808L15.576 20.456L19.368 10.28H21.432ZM35.9235 10.16C37.6835 10.16 39.0275 10.592 39.9555 11.456C40.8995 12.32 41.3715 13.608 41.3715 15.32V23H39.1875V21.32C38.8035 21.912 38.2515 22.368 37.5315 22.688C36.8275 22.992 35.9875 23.144 35.0115 23.144C33.5875 23.144 32.4435 22.8 31.5795 22.112C30.7315 21.424 30.3075 20.52 30.3075 19.4C30.3075 18.28 30.7155 17.384 31.5315 16.712C32.3475 16.024 33.6435 15.68 35.4195 15.68H39.0675V15.224C39.0675 14.232 38.7795 13.472 38.2035 12.944C37.6275 12.416 36.7795 12.152 35.6595 12.152C34.9075 12.152 34.1715 12.28 33.4515 12.536C32.7315 12.776 32.1235 13.104 31.6275 13.52L30.6675 11.792C31.3235 11.264 32.1075 10.864 33.0195 10.592C33.9315 10.304 34.8995 10.16 35.9235 10.16ZM35.3955 21.368C36.2755 21.368 37.0355 21.176 37.6755 20.792C38.3155 20.392 38.7795 19.832 39.0675 19.112V17.336H35.5155C33.5635 17.336 32.5875 17.992 32.5875 19.304C32.5875 19.944 32.8355 20.448 33.3315 20.816C33.8275 21.184 34.5155 21.368 35.3955 21.368ZM60.7073 22.256C60.3713 22.544 59.9553 22.768 59.4593 22.928C58.9633 23.072 58.4513 23.144 57.9233 23.144C56.6433 23.144 55.6513 22.8 54.9473 22.112C54.2433 21.424 53.8913 20.44 53.8913 19.16V12.176H51.7313V10.28H53.8913V7.496H56.1953V10.28H59.8433V12.176H56.1953V19.064C56.1953 19.752 56.3633 20.28 56.6993 20.648C57.0513 21.016 57.5473 21.2 58.1873 21.2C58.8913 21.2 59.4913 21 59.9873 20.6L60.7073 22.256ZM75.0608 23.144C74.0208 23.144 73.0208 23.008 72.0608 22.736C71.1008 22.448 70.3488 22.088 69.8048 21.656L70.7648 19.832C71.3248 20.232 72.0048 20.552 72.8048 20.792C73.6048 21.032 74.4128 21.152 75.2288 21.152C77.2448 21.152 78.2528 20.576 78.2528 19.424C78.2528 19.04 78.1168 18.736 77.8448 18.512C77.5728 18.288 77.2288 18.128 76.8128 18.032C76.4128 17.92 75.8368 17.8 75.0848 17.672C74.0608 17.512 73.2208 17.328 72.5648 17.12C71.9248 16.912 71.3728 16.56 70.9088 16.064C70.4448 15.568 70.2128 14.872 70.2128 13.976C70.2128 12.824 70.6928 11.904 71.6528 11.216C72.6128 10.512 73.9008 10.16 75.5168 10.16C76.3648 10.16 77.2128 10.264 78.0608 10.472C78.9088 10.68 79.6048 10.96 80.1488 11.312L79.1648 13.136C78.1248 12.464 76.9008 12.128 75.4928 12.128C74.5168 12.128 73.7728 12.288 73.2608 12.608C72.7488 12.928 72.4928 13.352 72.4928 13.88C72.4928 14.296 72.6368 14.624 72.9248 14.864C73.2128 15.104 73.5648 15.28 73.9808 15.392C74.4128 15.504 75.0128 15.632 75.7808 15.776C76.8048 15.952 77.6288 16.144 78.2528 16.352C78.8928 16.544 79.4368 16.88 79.8848 17.36C80.3328 17.84 80.5568 18.512 80.5568 19.376C80.5568 20.528 80.0608 21.448 79.0688 22.136C78.0928 22.808 76.7568 23.144 75.0608 23.144ZM98.1482 10.16C99.7642 10.16 101.044 10.632 101.988 11.576C102.948 12.504 103.428 13.872 103.428 15.68V23H101.124V15.944C101.124 14.712 100.828 13.784 100.236 13.16C99.6442 12.536 98.7962 12.224 97.6922 12.224C96.4442 12.224 95.4602 12.592 94.7402 13.328C94.0202 14.048 93.6602 15.088 93.6602 16.448V23H91.3562V5.192H93.6602V12.08C94.1402 11.472 94.7642 11 95.5322 10.664C96.3162 10.328 97.1882 10.16 98.1482 10.16ZM127.178 16.712C127.178 16.888 127.162 17.12 127.13 17.408H116.81C116.954 18.528 117.442 19.432 118.274 20.12C119.122 20.792 120.17 21.128 121.418 21.128C122.938 21.128 124.162 20.616 125.09 19.592L126.362 21.08C125.786 21.752 125.066 22.264 124.202 22.616C123.354 22.968 122.402 23.144 121.346 23.144C120.002 23.144 118.81 22.872 117.77 22.328C116.73 21.768 115.922 20.992 115.346 20C114.786 19.008 114.506 17.888 114.506 16.64C114.506 15.408 114.778 14.296 115.322 13.304C115.882 12.312 116.642 11.544 117.602 11C118.578 10.44 119.674 10.16 120.89 10.16C122.106 10.16 123.186 10.44 124.13 11C125.09 11.544 125.834 12.312 126.362 13.304C126.906 14.296 127.178 15.432 127.178 16.712ZM120.89 12.104C119.786 12.104 118.858 12.44 118.106 13.112C117.37 13.784 116.938 14.664 116.81 15.752H124.97C124.842 14.68 124.402 13.808 123.65 13.136C122.914 12.448 121.994 12.104 120.89 12.104ZM140.506 12.416C140.906 11.68 141.498 11.12 142.282 10.736C143.066 10.352 144.018 10.16 145.138 10.16V12.392C145.01 12.376 144.834 12.368 144.61 12.368C143.362 12.368 142.378 12.744 141.658 13.496C140.954 14.232 140.602 15.288 140.602 16.664V23H138.298V10.28H140.506V12.416Z" fill="#0A2835"/>
<path d="M25.5 15L27.6651 18.75H23.3349L25.5 15Z" fill="black" fill-opacity="0.08"/>
<path d="M49.2678 15.7322L48.147 19.9148L45.0852 16.853L49.2678 15.7322Z" fill="black" fill-opacity="0.08"/>
<path d="M62.7678 15.7322L66.9503 16.853L63.8885 19.9148L62.7678 15.7322Z" fill="black" fill-opacity="0.08"/>
<path d="M86.9503 18.1471L82.7678 19.2678L83.8885 15.0853L86.9503 18.1471Z" fill="black" fill-opacity="0.08"/>
<path d="M105.897 16.25L110.227 16.25L108.062 20L105.897 16.25Z" fill="black" fill-opacity="0.08"/>
<path d="M130.647 19.2678L131.768 15.0852L134.83 18.147L130.647 19.2678Z" fill="black" fill-opacity="0.08"/>
</svg>
